<svg xmlns="http://www.w3.org/2000/svg" xmlns:xlink="http://www.w3.org/1999/xlink" x="0" y="0" width="662" height="334" style="
        width:662px;
        height:334px;
        background: #FFF;
        fill: none;
">
        <svg xmlns="http://www.w3.org/2000/svg"><g><defs><pattern id=".7452528052227294" width="10" height="10" patternUnits="userSpaceOnUse"><path d="M 10 0 L 0 0 0 10" fill="none" stroke="lightgray" stroke-width="0.5"/></pattern></defs><rect width="100%" height="100%" fill="url(#.7452528052227294)" stroke="lightgray" stroke-width="0.5"/></g></svg>
        
        <svg xmlns="http://www.w3.org/2000/svg" class="role-diagram-draw-area"><g class="shapes-region" style="stroke: black; fill: none;"><g class="composite-shape"><path class="real" d=" M-32.98,-32.75 L858.02,-32.75 L858.02,429.25 L-32.98,429.25 Z" style="stroke-width: 1; stroke: none; fill: none; fill-opacity: 1; stroke-dasharray: 6, 6;"/><path class="real" d=" M0.02,-32.75 L0.02,429.25 M33.02,-32.75 L33.02,429.25 M66.02,-32.75 L66.02,429.25 M99.02,-32.75 L99.02,429.25 M132.02,-32.75 L132.02,429.25 M165.02,-32.75 L165.02,429.25 M198.02,-32.75 L198.02,429.25 M231.02,-32.75 L231.02,429.25 M264.02,-32.75 L264.02,429.25 M297.02,-32.75 L297.02,429.25 M330.02,-32.75 L330.02,429.25 M363.02,-32.75 L363.02,429.25 M396.02,-32.75 L396.02,429.25 M429.02,-32.75 L429.02,429.25 M462.02,-32.75 L462.02,429.25 M495.02,-32.75 L495.02,429.25 M528.02,-32.75 L528.02,429.25 M561.02,-32.75 L561.02,429.25 M594.02,-32.75 L594.02,429.25 M627.02,-32.75 L627.02,429.25 M660.02,-32.75 L660.02,429.25 M693.02,-32.75 L693.02,429.25 M726.02,-32.75 L726.02,429.25 M759.02,-32.75 L759.02,429.25 M792.02,-32.75 L792.02,429.25 M825.02,-32.75 L825.02,429.25" style="stroke-width: 1; stroke: rgb(0, 0, 0); fill: none; fill-opacity: 1; stroke-dasharray: 6, 6;"/><path class="real" d=" M-32.98,0.25 L858.02,0.25 M-32.98,33.25 L858.02,33.25 M-32.98,66.25 L858.02,66.25 M-32.98,99.25 L858.02,99.25 M-32.98,132.25 L858.02,132.25 M-32.98,165.25 L858.02,165.25 M-32.98,198.25 L858.02,198.25 M-32.98,231.25 L858.02,231.25 M-32.98,264.25 L858.02,264.25 M-32.98,297.25 L858.02,297.25 M-32.98,330.25 L858.02,330.25 M-32.98,363.25 L858.02,363.25 M-32.98,396.25 L858.02,396.25" style="stroke-width: 1; stroke: rgb(0, 0, 0); fill: none; fill-opacity: 1; stroke-dasharray: 6, 6;"/><path class="real" d=" M-32.98,-32.75 L858.02,-32.75 L858.02,429.25 L-32.98,429.25 Z" style="stroke-width: 1; stroke: rgb(0, 0, 0); fill: none; fill-opacity: 1; stroke-dasharray: 6, 6;"/></g><g class="composite-shape"><path class="real" d=" M-460.16,-64.93 L462.11,-526.77 L792,132 L-130.28,593.84 Z" style="stroke-width: 2; stroke: none; stroke-opacity: 1; fill: none; fill-opacity: 1;"/><path class="real" d=" M-328.41,-130.9 L1.48,527.86 M-196.65,-196.88 L133.23,461.89 M-64.9,-262.86 L264.99,395.91 M66.85,-328.84 L396.74,329.93 M198.61,-394.81 L528.49,263.95 M330.36,-460.79 L660.25,197.98" style="stroke-width: 2; stroke: rgb(255, 0, 0); stroke-opacity: 1; fill: none; fill-opacity: 1;"/><path class="real" d=" M-394.18,66.83 L528.09,-395.01 M-328.21,198.58 L594.07,-263.26 M-262.23,330.33 L660.05,-131.51 M-196.25,462.09 L726.02,0.25" style="stroke-width: 2; stroke: rgb(255, 0, 0); stroke-opacity: 1; fill: none; fill-opacity: 1;"/><path class="real" d=" M-460.16,-64.93 L462.11,-526.77 L792,132 L-130.28,593.84 Z" style="stroke-width: 2; stroke: rgb(255, 0, 0); stroke-opacity: 1; fill: none; fill-opacity: 1;"/></g><g class="composite-shape"><path class="real" d=" M90.5,264 C90.5,259.31 94.31,255.5 99,255.5 C103.69,255.5 107.5,259.31 107.5,264 C107.5,268.69 103.69,272.5 99,272.5 C94.31,272.5 90.5,268.69 90.5,264 Z" style="stroke-width: 1; stroke: rgb(65, 117, 5); stroke-opacity: 1; fill: rgb(126, 211, 33); fill-opacity: 1;"/></g><g class="composite-shape"><path class="real" d=" M123.5,297 C123.5,292.31 127.31,288.5 132,288.5 C136.69,288.5 140.5,292.31 140.5,297 C140.5,301.69 136.69,305.5 132,305.5 C127.31,305.5 123.5,301.69 123.5,297 Z" style="stroke-width: 1; stroke: rgb(65, 117, 5); stroke-opacity: 1; fill: rgb(74, 144, 226); fill-opacity: 1;"/></g><g class="composite-shape"><path class="real" d=" M57.5,297 C57.5,292.31 61.31,288.5 66,288.5 C70.69,288.5 74.5,292.31 74.5,297 C74.5,301.69 70.69,305.5 66,305.5 C61.31,305.5 57.5,301.69 57.5,297 Z" style="stroke-width: 1; stroke: rgb(65, 117, 5); stroke-opacity: 1; fill: rgb(126, 211, 33); fill-opacity: 1;"/></g><g class="composite-shape"><path class="real" d=" M90.5,297 C90.5,292.31 94.31,288.5 99,288.5 C103.69,288.5 107.5,292.31 107.5,297 C107.5,301.69 103.69,305.5 99,305.5 C94.31,305.5 90.5,301.69 90.5,297 Z" style="stroke-width: 1; stroke: rgb(65, 117, 5); stroke-opacity: 1; fill: rgb(126, 211, 33); fill-opacity: 1;"/></g><g class="composite-shape"><path class="real" d=" M123.5,264 C123.5,259.31 127.31,255.5 132,255.5 C136.69,255.5 140.5,259.31 140.5,264 C140.5,268.69 136.69,272.5 132,272.5 C127.31,272.5 123.5,268.69 123.5,264 Z" style="stroke-width: 1; stroke: rgb(65, 117, 5); stroke-opacity: 1; fill: rgb(126, 211, 33); fill-opacity: 1;"/></g><g class="composite-shape"><path class="real" d=" M57.5,330 C57.5,325.31 61.31,321.5 66,321.5 C70.69,321.5 74.5,325.31 74.5,330 C74.5,334.69 70.69,338.5 66,338.5 C61.31,338.5 57.5,334.69 57.5,330 Z" style="stroke-width: 1; stroke: rgb(65, 117, 5); stroke-opacity: 1; fill: rgb(126, 211, 33); fill-opacity: 1;"/></g><g class="composite-shape"><path class="real" d=" M24.5,231 C24.5,226.31 28.31,222.5 33,222.5 C37.69,222.5 41.5,226.31 41.5,231 C41.5,235.69 37.69,239.5 33,239.5 C28.31,239.5 24.5,235.69 24.5,231 Z" style="stroke-width: 1; stroke: rgb(65, 117, 5); stroke-opacity: 1; fill: rgb(126, 211, 33); fill-opacity: 1;"/></g><g class="composite-shape"><path class="real" d=" M24.5,264 C24.5,259.31 28.31,255.5 33,255.5 C37.69,255.5 41.5,259.31 41.5,264 C41.5,268.69 37.69,272.5 33,272.5 C28.31,272.5 24.5,268.69 24.5,264 Z" style="stroke-width: 1; stroke: rgb(65, 117, 5); stroke-opacity: 1; fill: rgb(74, 144, 226); fill-opacity: 1;"/></g><g class="composite-shape"><path class="real" d=" M57.5,264 C57.5,259.31 61.31,255.5 66,255.5 C70.69,255.5 74.5,259.31 74.5,264 C74.5,268.69 70.69,272.5 66,272.5 C61.31,272.5 57.5,268.69 57.5,264 Z" style="stroke-width: 1; stroke: rgb(65, 117, 5); stroke-opacity: 1; fill: rgb(126, 211, 33); fill-opacity: 1;"/></g><g class="composite-shape"><path class="real" d=" M90.5,231 C90.5,226.31 94.31,222.5 99,222.5 C103.69,222.5 107.5,226.31 107.5,231 C107.5,235.69 103.69,239.5 99,239.5 C94.31,239.5 90.5,235.69 90.5,231 Z" style="stroke-width: 1; stroke: rgb(65, 117, 5); stroke-opacity: 1; fill: rgb(74, 144, 226); fill-opacity: 1;"/></g><g class="composite-shape"><path class="real" d=" M57.5,231 C57.5,226.31 61.31,222.5 66,222.5 C70.69,222.5 74.5,226.31 74.5,231 C74.5,235.69 70.69,239.5 66,239.5 C61.31,239.5 57.5,235.69 57.5,231 Z" style="stroke-width: 1; stroke: rgb(65, 117, 5); stroke-opacity: 1; fill: rgb(126, 211, 33); fill-opacity: 1;"/></g><g class="composite-shape"><path class="real" d=" M123.5,231 C123.5,226.31 127.31,222.5 132,222.5 C136.69,222.5 140.5,226.31 140.5,231 C140.5,235.69 136.69,239.5 132,239.5 C127.31,239.5 123.5,235.69 123.5,231 Z" style="stroke-width: 1; stroke: rgb(65, 117, 5); stroke-opacity: 1; fill: rgb(126, 211, 33); fill-opacity: 1;"/></g><g class="composite-shape"><path class="real" d=" M156.5,264 C156.5,259.31 160.31,255.5 165,255.5 C169.69,255.5 173.5,259.31 173.5,264 C173.5,268.69 169.69,272.5 165,272.5 C160.31,272.5 156.5,268.69 156.5,264 Z" style="stroke-width: 1; stroke: rgb(65, 117, 5); stroke-opacity: 1; fill: rgb(126, 211, 33); fill-opacity: 1;"/></g><g class="composite-shape"><path class="real" d=" M156.5,231 C156.5,226.31 160.31,222.5 165,222.5 C169.69,222.5 173.5,226.31 173.5,231 C173.5,235.69 169.69,239.5 165,239.5 C160.31,239.5 156.5,235.69 156.5,231 Z" style="stroke-width: 1; stroke: rgb(65, 117, 5); stroke-opacity: 1; fill: rgb(126, 211, 33); fill-opacity: 1;"/></g><g class="composite-shape"><path class="real" d=" M123.5,198 C123.5,193.31 127.31,189.5 132,189.5 C136.69,189.5 140.5,193.31 140.5,198 C140.5,202.69 136.69,206.5 132,206.5 C127.31,206.5 123.5,202.69 123.5,198 Z" style="stroke-width: 1; stroke: rgb(65, 117, 5); stroke-opacity: 1; fill: rgb(126, 211, 33); fill-opacity: 1;"/></g><g class="composite-shape"><path class="real" d=" M123.5,165 C123.5,160.31 127.31,156.5 132,156.5 C136.69,156.5 140.5,160.31 140.5,165 C140.5,169.69 136.69,173.5 132,173.5 C127.31,173.5 123.5,169.69 123.5,165 Z" style="stroke-width: 1; stroke: rgb(65, 117, 5); stroke-opacity: 1; fill: rgb(126, 211, 33); fill-opacity: 1;"/></g><g class="composite-shape"><path class="real" d=" M90.5,165 C90.5,160.31 94.31,156.5 99,156.5 C103.69,156.5 107.5,160.31 107.5,165 C107.5,169.69 103.69,173.5 99,173.5 C94.31,173.5 90.5,169.69 90.5,165 Z" style="stroke-width: 1; stroke: rgb(65, 117, 5); stroke-opacity: 1; fill: rgb(126, 211, 33); fill-opacity: 1;"/></g><g class="composite-shape"><path class="real" d=" M57.5,198 C57.5,193.31 61.31,189.5 66,189.5 C70.69,189.5 74.5,193.31 74.5,198 C74.5,202.69 70.69,206.5 66,206.5 C61.31,206.5 57.5,202.69 57.5,198 Z" style="stroke-width: 1; stroke: rgb(65, 117, 5); stroke-opacity: 1; fill: rgb(126, 211, 33); fill-opacity: 1;"/></g><g class="composite-shape"><path class="real" d=" M90.5,198 C90.5,193.31 94.31,189.5 99,189.5 C103.69,189.5 107.5,193.31 107.5,198 C107.5,202.69 103.69,206.5 99,206.5 C94.31,206.5 90.5,202.69 90.5,198 Z" style="stroke-width: 1; stroke: rgb(65, 117, 5); stroke-opacity: 1; fill: rgb(126, 211, 33); fill-opacity: 1;"/></g><g class="composite-shape"><path class="real" d=" M24.5,198 C24.5,193.31 28.31,189.5 33,189.5 C37.69,189.5 41.5,193.31 41.5,198 C41.5,202.69 37.69,206.5 33,206.5 C28.31,206.5 24.5,202.69 24.5,198 Z" style="stroke-width: 1; stroke: rgb(65, 117, 5); stroke-opacity: 1; fill: rgb(126, 211, 33); fill-opacity: 1;"/></g><g/></g><g/><g/><g/></svg>
        <svg xmlns="http://www.w3.org/2000/svg" xmlns:xlink="http://www.w3.org/1999/xlink" width="660" height="332" style="width:660px;height:332px;font-family:Asana-Math, Asana;background:#FFF;"></svg>
</svg>
